<svg xmlns="http://www.w3.org/2000/svg" xmlns:xlink="http://www.w3.org/1999/xlink" version="1.1" id="Layer_1" x="0px" y="0px" viewBox="0 0 72 72" style="enable-background:new 0 0 72 72;" xml:space="preserve" width="72"  height="72" >
<style type="text/css">
	.st0{fill:#00AFF0;}
	.st1{fill:#FFFFFF;}
</style>
<g id="Twitter">
	<rect class="st0" width="72" height="72"/>
</g>
<g id="Guides">
</g>
<g>
	<path id="Skype" class="st1" d="M52.5,38.5c0.1-0.8,0.2-1.7,0.2-2.6c0-9.2-7.4-16.6-16.6-16.6c-0.9,0-1.8,0.1-2.6,0.2   c-1.5-0.9-3.3-1.5-5.3-1.5c-5.6,0-10.1,4.5-10.1,10.1c0,1.9,0.5,3.7,1.5,5.3c-0.1,0.8-0.2,1.7-0.2,2.6c0,9.2,7.4,16.6,16.6,16.6   c0.9,0,1.8-0.1,2.6-0.2c1.5,0.9,3.3,1.5,5.3,1.5c5.6,0,10.1-4.5,10.1-10.1C54,41.9,53.4,40.1,52.5,38.5z M44,43.5   c-0.7,1-1.7,1.8-3.1,2.4c-1.4,0.6-3,0.9-4.8,0.9c-2.2,0-4-0.4-5.5-1.2c-1-0.6-1.9-1.3-2.5-2.2c-0.6-0.9-1-1.9-1-2.8   c0-0.5,0.2-1,0.6-1.4c0.4-0.4,0.9-0.6,1.5-0.6c0.5,0,0.9,0.1,1.3,0.4c0.3,0.3,0.6,0.7,0.9,1.3c0.3,0.7,0.6,1.2,0.9,1.6   c0.3,0.4,0.8,0.8,1.4,1.1c0.6,0.3,1.4,0.4,2.3,0.4c1.3,0,2.4-0.3,3.2-0.9c0.8-0.6,1.2-1.3,1.2-2.1c0-0.7-0.2-1.2-0.7-1.6   c-0.4-0.4-1-0.7-1.7-1c-0.7-0.2-1.7-0.5-2.9-0.7c-1.6-0.4-3-0.8-4-1.2c-1.1-0.5-2-1.1-2.6-1.9c-0.6-0.8-1-1.8-1-3.1   c0-1.2,0.3-2.2,1-3.1c0.7-0.9,1.7-1.6,2.9-2.1c1.3-0.5,2.8-0.7,4.5-0.7c1.4,0,2.6,0.2,3.6,0.5c1,0.3,1.8,0.7,2.5,1.3   c0.7,0.5,1.2,1.1,1.5,1.7c0.3,0.6,0.5,1.2,0.5,1.7c0,0.5-0.2,1-0.6,1.4c-0.4,0.4-0.9,0.6-1.5,0.6c-0.5,0-0.9-0.1-1.2-0.4   c-0.3-0.2-0.6-0.6-0.9-1.2c-0.4-0.8-0.9-1.4-1.4-1.8c-0.5-0.4-1.4-0.6-2.7-0.6c-1.2,0-2.1,0.2-2.8,0.7c-0.7,0.5-1,1-1,1.7   c0,0.4,0.1,0.7,0.3,1c0.2,0.3,0.6,0.5,1,0.8c0.4,0.2,0.8,0.4,1.3,0.5c0.4,0.1,1.2,0.3,2.2,0.5c1.3,0.3,2.4,0.6,3.4,0.9   c1,0.3,1.9,0.7,2.6,1.2c0.7,0.5,1.3,1.1,1.7,1.8c0.4,0.7,0.6,1.6,0.6,2.7C45,41.3,44.7,42.5,44,43.5z"/>
</g>
</svg>